<svg xmlns="http://www.w3.org/2000/svg" viewBox="0 0 100 100" role="img" aria-label="CoraFit">
  <g transform="translate(12.5 21.77734375) scale(0.09765625)">
    <g transform="matrix(1,0,0,1,-2387.178954,1980.687941)">
      <g transform="matrix(2.134206,0,0,2.134206,2328.865455,-2078.454296)">
        <path d="M265.319,271.536C256.743,232.018 266.906,156.904 273.431,126.486C294.177,29.773 356.055,32.088 376.061,70.74C406.969,130.455 369.847,326.028 298.545,312.137C273.621,307.281 268.369,284.338 265.319,271.536Z" style="fill:rgb(255,61,0);"/>
        <path d="M140.373,273.511C139.828,267.519 137.273,239.405 145.35,198.471C162.532,111.393 216.699,105.615 237.118,134.765C262.363,170.804 239.993,323.216 171.487,313.61C142.539,309.551 140.568,274.655 140.373,273.511Z" style="fill:rgb(254,90,38);"/>
        <path d="M27.667,283.475C27.506,280.379 25.037,263.355 36.124,234.336C64.937,158.921 141.49,174.726 119.565,258.515C102.264,324.635 34.264,335.273 27.667,283.475Z" style="fill:rgb(254,119,91);"/>
      </g>
    </g>
  </g>
</svg>
