<?xml version="1.0" encoding="UTF-8" standalone="no"?>
<!DOCTYPE svg PUBLIC "-//W3C//DTD SVG 1.1//EN" "http://www.w3.org/Graphics/SVG/1.1/DTD/svg11.dtd">
<svg width="100%" height="100%" viewBox="0 0 1150 241" version="1.1" xmlns="http://www.w3.org/2000/svg" xmlns:xlink="http://www.w3.org/1999/xlink" xml:space="preserve" xmlns:serif="http://www.serif.com/" style="fill-rule:evenodd;clip-rule:evenodd;stroke-linejoin:round;stroke-miterlimit:2;">
    <g transform="matrix(1,0,0,1,-5234.896318,-935.561143)">
        <g transform="matrix(0.726008,0,0,0.275041,4030.919995,932.836571)">
            <g transform="matrix(1.377395,0,0,3.635827,-924.541395,-1189.471887)">
                <g id="exec-824ce47e-ce60-42f0-81bb-a4fd1bea053e.png" transform="matrix(1.598494,0,0,1.598494,2182.190902,325.233109)">
                    <path d="M216.084,115.466C215.238,123.34 213.261,136.205 199.311,146.225C187.022,155.052 158.94,158.281 143.743,135.349C142.506,133.483 138.697,126.408 137.84,118.458C134.862,90.831 155.194,71.475 180.527,73.161C195.631,74.166 203.932,82.967 205.435,84.561C217.146,96.977 216.21,111.528 216.084,115.466ZM156.059,110.477C154.571,138.535 183.272,142.23 193.153,128.24C201.762,116.051 198.013,102.895 192.405,96.584C181.871,84.73 158.087,88.095 156.059,110.477Z"/>
                    <path d="M30.064,91.468C30.308,87.419 30.36,87.443 31.008,83.422C31.404,80.97 33.664,66.951 44.407,55.414C50.168,49.226 51.195,48.696 55.648,45.731C74.314,33.303 103.864,33.366 122.061,48.952C127.545,53.649 127.175,61.704 121.546,64.581C115.039,67.907 111.866,64.324 108.355,61.703C96.096,52.55 79.316,54.019 70.655,58.791C65.473,61.645 65.509,62.018 63.479,63.475C56.119,68.754 46.723,84.392 50.259,102.552C54.999,126.889 74.054,133.986 82.452,134.835C97.591,136.365 105.97,130.336 112.215,125.154C118.53,119.914 125.854,124.672 126.895,130.428C128.192,137.596 121.027,141.505 117.727,143.832C101.155,155.519 74.014,157.344 53.752,143.14C41.93,134.852 35.342,122.577 32.854,114.398C29.164,102.271 30.025,93.427 30.064,91.468Z"/>
                    <path d="M280.943,126.546C281.038,125.98 281.776,121.576 282.686,119.583C282.916,119.078 285.749,111.884 294.68,107.89C296.869,106.912 307.695,102.071 324.539,105.29C327.956,105.943 329.612,106.987 329.635,103.504C329.646,101.776 330.733,89.249 315.499,89.237C305.859,89.23 300.971,94.331 298.785,95.906C292.799,100.218 288.07,96.046 286.942,93.307C282.48,82.472 301.571,72.617 318.509,73.306C346.467,74.443 347.33,97.728 347.432,98.508C347.773,101.125 347.737,101.113 347.719,131.499C347.711,144.697 347.864,144.813 346.49,147.494C343.813,152.717 332.449,154.869 330.544,144.486C330.369,143.533 330.49,143.219 329.528,143.214C328.723,143.21 328.955,143.668 325.383,146.336C315.335,153.842 298.186,154.991 288.378,146.644C279.903,139.431 280.798,130.256 280.943,126.546ZM299.075,128.507C299.179,129.506 298.936,131.372 301.066,133.866C307.276,141.134 326.905,138.4 329.372,125.475C329.86,122.914 329.877,119.657 329.121,118.881C328.113,117.847 311.863,115.881 305.362,119.197C299.987,121.939 299.305,124.505 299.075,128.507Z"/>
                    <path d="M377.507,152.058C375.318,151.717 373.37,151.625 371.004,148.941C369.157,146.845 368.78,145.354 368.676,142.495C368.572,139.634 368.645,85.46 368.651,80.5C368.689,52.266 368.563,52.235 369.029,50.369C370.455,44.652 376.427,43.37 378.485,43.237C379.606,43.165 429.37,43.228 429.506,43.231C439.965,43.48 440.512,57.775 431.564,59.806C429.267,60.328 390.99,59.953 389.461,60.105C386.816,60.368 387.21,61.936 387.224,68.499C387.261,86.512 388.454,87.626 388.454,87.626C388.454,87.626 412.178,87.652 420.492,87.807C429.137,87.968 430.83,96.591 427.884,100.757C424.701,105.256 421.811,104.328 406.5,104.419C389.269,104.521 387.956,104.045 387.448,105.478C387.011,106.71 387.335,138.357 387.214,142.492C387.192,143.246 387.043,148.364 382.628,150.732C379.818,152.24 378.025,152.011 377.507,152.058Z"/>
                    <path d="M516.502,75.097C516.84,75.108 524.385,74.432 525.613,81.482C526.4,85.999 523.274,90.639 517.516,90.821C513.701,90.941 509.105,90.618 508.356,91.349C507.653,92.037 507.896,92.22 507.823,110.502C507.753,128.107 507.452,131.446 510.655,134.328C515.482,138.671 522.243,132.339 526.083,138.734C526.966,140.205 529.334,148.014 521.619,150.817C511.679,154.429 490.79,153.163 489.724,130.489C489.562,127.034 489.807,93.21 489.685,92.47C489.083,88.827 482.66,93.377 478.869,87.288C476.693,83.794 477.437,75.33 485.49,75.167C488.297,75.11 488.297,75.127 488.402,75.086C489.937,74.501 489.688,74.135 489.704,72.504C489.773,65.575 488.932,61.724 493.301,58.235C497.988,54.49 507.618,56.549 507.829,65.49C508.025,73.822 507.73,73.966 508.382,74.626C508.964,75.217 512.785,75.097 516.502,75.097Z"/>
                    <path d="M276.892,83.511C276.613,85.681 276.922,85.798 275.764,87.642C270.998,95.234 264.825,87.387 254.453,95.446C252.725,96.789 250.177,100.101 249.093,103.354C247.677,107.602 247.937,108.647 247.948,125.498C247.95,128.083 248.156,143.467 247.59,145.525C245.134,154.448 230.737,154.315 230.493,142.5C230.484,142.07 230.444,83.96 230.467,83.499C231.012,72.699 244.161,72.457 246.967,79.302C248.587,83.256 246.8,84.629 248.489,84.595C249.675,84.57 249.447,84.128 250.126,83.169C253.602,78.256 260.057,75.635 261.417,75.254C264.256,74.458 268.393,73.426 272.547,75.408C272.861,75.558 274.72,76.445 275.712,78.385C277.093,81.087 276.864,83.003 276.892,83.511Z"/>
                    <path d="M458.499,74.095C459.041,74.16 459.636,73.999 461.444,74.647C468.371,77.128 467.186,85.888 467.188,86.501C467.201,90.98 467.318,133.107 467.165,142.49C466.964,154.756 449.454,154.977 449.121,142.512C449.073,140.706 449.104,85.377 449.127,83.496C449.135,82.764 449.196,77.673 453.463,75.435C456.419,73.885 457.985,74.139 458.499,74.095Z"/>
                    <path d="M448.105,53.486C448.145,53.145 448.132,52.799 448.173,52.457C448.955,45.904 455.47,42.484 460.487,43.564C468.409,45.269 470.96,54.441 466.991,59.834C461.244,67.645 452.15,64.38 449.53,59.482C447.902,56.438 448.156,54.702 448.105,53.486Z"/>
                </g>
                <g id="exec-824ce47e-ce60-42f0-81bb-a4fd1bea053e.png1" serif:id="exec-824ce47e-ce60-42f0-81bb-a4fd1bea053e.png" transform="matrix(0.888448,0,0,0.888448,1850.925518,289.17848)">
                    <path d="M265.319,271.536C256.743,232.018 266.906,156.904 273.431,126.486C294.177,29.773 356.055,32.088 376.061,70.74C406.969,130.455 369.847,326.028 298.545,312.137C273.621,307.281 268.369,284.338 265.319,271.536Z"/>
                    <path d="M140.373,273.511C139.828,267.519 137.273,239.405 145.35,198.471C162.532,111.393 216.699,105.615 237.118,134.765C262.363,170.804 239.993,323.216 171.487,313.61C142.539,309.551 140.568,274.655 140.373,273.511Z"/>
                    <path d="M27.667,283.475C27.506,280.379 25.037,263.355 36.124,234.336C64.937,158.921 141.49,174.726 119.565,258.515C102.264,324.635 34.264,335.273 27.667,283.475Z"/>
                </g>
            </g>
        </g>
    </g>
</svg>
